<svg width="509" height="90" viewBox="0 0 509 90" fill="none" xmlns="http://www.w3.org/2000/svg">
<path d="M92.87 88H61.93L58.03 71.62H34.89L30.86 88H0.7L28.52 2.2H64.92L92.87 88ZM39.44 52.77H53.61L46.59 23L39.44 52.77ZM111.129 88V2.2H160.269C171.102 2.28666 179.162 4.23666 184.449 8.05C189.736 11.7767 192.379 17.4533 192.379 25.08C192.379 30.1933 190.819 34.5267 187.699 38.08C184.579 41.6333 179.682 43.8867 173.009 44.84V44.97C180.462 45.75 185.922 47.96 189.389 51.6C192.856 55.24 194.589 59.8333 194.589 65.38C194.589 72.92 192.032 78.5967 186.919 82.41C181.892 86.1367 174.136 88 163.649 88H111.129ZM140.119 68.24H155.589C158.276 68.24 160.269 67.72 161.569 66.68C162.956 65.5533 163.649 63.95 163.649 61.87C163.649 59.8767 162.956 58.36 161.569 57.32C160.269 56.28 158.276 55.76 155.589 55.76H140.119V68.24ZM140.119 35.48H153.639C158.839 35.48 161.439 33.4 161.439 29.24C161.439 25.08 158.839 23 153.639 23H140.119V35.48ZM256.612 0.899998C265.712 0.899998 273.512 2.63333 280.012 6.09999C286.512 9.56666 291.495 14.5933 294.962 21.18C298.429 27.7667 300.162 35.74 300.162 45.1C300.162 54.46 298.429 62.4333 294.962 69.02C291.495 75.6067 286.512 80.6333 280.012 84.1C273.512 87.5667 265.712 89.3 256.612 89.3C247.599 89.3 239.799 87.5667 233.212 84.1C226.712 80.6333 221.685 75.6067 218.132 69.02C214.665 62.4333 212.932 54.46 212.932 45.1C212.932 35.74 214.665 27.7667 218.132 21.18C221.685 14.5933 226.712 9.56666 233.212 6.09999C239.799 2.63333 247.599 0.899998 256.612 0.899998ZM256.612 23.65C253.665 23.65 251.239 24.43 249.332 25.99C247.512 27.4633 246.125 29.76 245.172 32.88C244.305 36 243.872 40.0733 243.872 45.1C243.872 50.04 244.305 54.1133 245.172 57.32C246.125 60.44 247.512 62.78 249.332 64.34C251.239 65.8133 253.665 66.55 256.612 66.55C259.559 66.55 261.942 65.8133 263.762 64.34C265.669 62.78 267.055 60.44 267.922 57.32C268.789 54.1133 269.222 50.04 269.222 45.1C269.222 40.0733 268.789 36 267.922 32.88C267.055 29.76 265.669 27.4633 263.762 25.99C261.942 24.43 259.559 23.65 256.612 23.65ZM404.619 2.2V51.08C404.619 63.9067 401.152 73.4833 394.219 79.81C387.372 86.1367 377.016 89.3 363.149 89.3C349.282 89.3 338.882 86.1367 331.949 79.81C325.102 73.4833 321.679 63.9067 321.679 51.08V2.2H352.099V53.42C352.099 57.7533 353.052 61.0467 354.959 63.3C356.866 65.4667 359.596 66.55 363.149 66.55C366.789 66.55 369.562 65.4667 371.469 63.3C373.376 61.0467 374.329 57.7533 374.329 53.42V2.2H404.619ZM508.998 2.2V24.43H482.218V88H451.928V24.43H425.018V2.2H508.998Z" fill="url(#paint0_linear_342_2)" fill-opacity="0.9"/>
<defs>
<linearGradient id="paint0_linear_342_2" x1="266.878" y1="-554.5" x2="264.664" y2="107.996" gradientUnits="userSpaceOnUse">
<stop stop-color="white" stop-opacity="0.48"/>
<stop offset="1" stop-color="white" stop-opacity="0"/>
</linearGradient>
</defs>
</svg>
