<svg width="695" height="90" viewBox="0 0 695 90" fill="none" xmlns="http://www.w3.org/2000/svg">
<path d="M84.1 61.74C82.54 68.4133 79.8533 73.7867 76.04 77.86C72.3133 81.9333 67.7633 84.88 62.39 86.7C57.0167 88.4333 51.0367 89.3 44.45 89.3C35.4367 89.3 27.6367 87.5667 21.05 84.1C14.55 80.6333 9.52333 75.6067 5.97 69.02C2.50333 62.4333 0.77 54.46 0.77 45.1C0.77 35.74 2.50333 27.7667 5.97 21.18C9.52333 14.5933 14.55 9.56666 21.05 6.09999C27.6367 2.63333 35.4367 0.899998 44.45 0.899998C50.7767 0.899998 56.67 1.81 62.13 3.62999C67.59 5.36333 72.1833 8.13666 75.91 11.95C79.7233 15.7633 82.2367 20.7467 83.45 26.9L57.45 37.04C56.7567 31.4067 55.3267 27.7667 53.16 26.12C51.08 24.4733 48.4367 23.65 45.23 23.65C42.2833 23.65 39.77 24.43 37.69 25.99C35.6967 27.4633 34.18 29.8033 33.14 33.01C32.1867 36.13 31.71 40.16 31.71 45.1C31.71 49.9533 32.1433 53.9833 33.01 57.19C33.9633 60.3967 35.48 62.78 37.56 64.34C39.64 65.8133 42.4133 66.55 45.88 66.55C49 66.55 51.5567 65.64 53.55 63.82C55.5433 61.9133 56.8 58.9233 57.32 54.85L84.1 61.74ZM145.429 0.899998C154.529 0.899998 162.329 2.63333 168.829 6.09999C175.329 9.56666 180.312 14.5933 183.779 21.18C187.245 27.7667 188.979 35.74 188.979 45.1C188.979 54.46 187.245 62.4333 183.779 69.02C180.312 75.6067 175.329 80.6333 168.829 84.1C162.329 87.5667 154.529 89.3 145.429 89.3C136.415 89.3 128.615 87.5667 122.029 84.1C115.529 80.6333 110.502 75.6067 106.949 69.02C103.482 62.4333 101.749 54.46 101.749 45.1C101.749 35.74 103.482 27.7667 106.949 21.18C110.502 14.5933 115.529 9.56666 122.029 6.09999C128.615 2.63333 136.415 0.899998 145.429 0.899998ZM145.429 23.65C142.482 23.65 140.055 24.43 138.149 25.99C136.329 27.4633 134.942 29.76 133.989 32.88C133.122 36 132.689 40.0733 132.689 45.1C132.689 50.04 133.122 54.1133 133.989 57.32C134.942 60.44 136.329 62.78 138.149 64.34C140.055 65.8133 142.482 66.55 145.429 66.55C148.375 66.55 150.759 65.8133 152.579 64.34C154.485 62.78 155.872 60.44 156.739 57.32C157.605 54.1133 158.039 50.04 158.039 45.1C158.039 40.0733 157.605 36 156.739 32.88C155.872 29.76 154.485 27.4633 152.579 25.99C150.759 24.43 148.375 23.65 145.429 23.65ZM296.166 2.2V88H263.406L242.866 49L238.186 38.47H237.926L238.446 56.15V88H212.186V2.2H244.946L265.486 41.33L270.166 51.73H270.426L269.906 34.05V2.2H296.166ZM402.258 2.2V24.43H375.478V88H345.188V24.43H318.278V2.2H402.258ZM498.513 88H467.573L463.673 71.62H440.533L436.503 88H406.343L434.163 2.2H470.563L498.513 88ZM445.083 52.77H459.253L452.233 23L445.083 52.77ZM593.944 61.74C592.384 68.4133 589.697 73.7867 585.884 77.86C582.157 81.9333 577.607 84.88 572.234 86.7C566.86 88.4333 560.88 89.3 554.294 89.3C545.28 89.3 537.48 87.5667 530.894 84.1C524.394 80.6333 519.367 75.6067 515.814 69.02C512.347 62.4333 510.614 54.46 510.614 45.1C510.614 35.74 512.347 27.7667 515.814 21.18C519.367 14.5933 524.394 9.56666 530.894 6.09999C537.48 2.63333 545.28 0.899998 554.294 0.899998C560.62 0.899998 566.514 1.81 571.974 3.62999C577.434 5.36333 582.027 8.13666 585.754 11.95C589.567 15.7633 592.08 20.7467 593.294 26.9L567.294 37.04C566.6 31.4067 565.17 27.7667 563.004 26.12C560.924 24.4733 558.28 23.65 555.074 23.65C552.127 23.65 549.614 24.43 547.534 25.99C545.54 27.4633 544.024 29.8033 542.984 33.01C542.03 36.13 541.554 40.16 541.554 45.1C541.554 49.9533 541.987 53.9833 542.854 57.19C543.807 60.3967 545.324 62.78 547.404 64.34C549.484 65.8133 552.257 66.55 555.724 66.55C558.844 66.55 561.4 65.64 563.394 63.82C565.387 61.9133 566.644 58.9233 567.164 54.85L593.944 61.74ZM694.402 2.2V24.43H667.622V88H637.332V24.43H610.422V2.2H694.402Z" fill="url(#paint0_linear_330_14)" fill-opacity="0.9"/>
<defs>
<linearGradient id="paint0_linear_330_14" x1="360.558" y1="-554.5" x2="358.945" y2="108" gradientUnits="userSpaceOnUse">
<stop stop-color="white" stop-opacity="0.48"/>
<stop offset="1" stop-color="white" stop-opacity="0"/>
</linearGradient>
</defs>
</svg>
