<svg width="101" height="101" viewBox="0 0 101 101" fill="none" xmlns="http://www.w3.org/2000/svg">
<path d="M98.6668 46.1384L55.0059 2.47983C52.493 -0.0346192 48.4148 -0.0346192 45.8988 2.47983L36.8324 11.5462L48.3336 23.0474C51.0062 22.1443 54.0711 22.7501 56.2016 24.8806C58.3422 27.0248 58.9437 30.1158 58.0187 32.797L69.1027 43.8814C71.7844 42.9576 74.8785 43.5552 77.0203 45.7005C80.0137 48.6927 80.0137 53.5423 77.0203 56.5365C74.0262 59.531 69.1766 59.531 66.1809 56.5365C63.9293 54.2826 63.373 50.9759 64.5129 48.2021L54.1762 37.8654L54.175 65.0673C54.9243 65.4378 55.6087 65.9272 56.2016 66.5166C59.1949 69.5087 59.1949 74.3587 56.2016 77.3552C53.2074 80.3482 48.3555 80.3482 45.3656 77.3552C42.3723 74.3587 42.3723 69.5091 45.3656 66.5169C46.083 65.7992 46.9355 65.2309 47.8738 64.8447V37.3892C46.9341 37.0056 46.0811 36.4369 45.3656 35.7169C43.0977 33.4521 42.5523 30.1244 43.7145 27.3396L32.377 16.0009L2.43945 45.9365C-0.0761719 48.4533 -0.0761719 52.5318 2.43945 55.0466L46.1012 98.706C48.6148 101.221 52.6922 101.221 55.209 98.706L98.6664 55.2494C101.181 52.7337 101.181 48.6529 98.6664 46.1384" fill="#DE4C36"/>
</svg>
