<svg width="101" height="100" viewBox="0 0 101 100" fill="none" xmlns="http://www.w3.org/2000/svg">
<path d="M100.553 0H0.552734V100H100.553V0Z" fill="white"/>
<path d="M67.7273 78.1254C69.7415 81.4143 72.3622 83.8318 76.9971 83.8318C80.8908 83.8318 83.378 81.8857 83.378 79.1969C83.378 75.9746 80.8225 74.8334 76.5368 72.9588L74.1876 71.9508C67.4066 69.0619 62.9019 65.4429 62.9019 57.7921C62.9019 50.7445 68.2717 45.3794 76.6638 45.3794C82.6384 45.3794 86.9336 47.4588 90.0288 52.9032L82.7114 57.6016C81.1003 54.7127 79.3622 53.5746 76.6638 53.5746C73.9114 53.5746 72.1669 55.3207 72.1669 57.6016C72.1669 60.4207 73.913 61.5619 77.9447 63.308L80.2939 64.3143C88.278 67.7381 92.786 71.2286 92.786 79.0762C92.786 87.5365 86.14 92.1715 77.2146 92.1715C68.4876 92.1715 62.8495 88.0127 60.0907 82.5619L67.7273 78.1254ZM34.532 78.9397C36.0082 81.5588 37.3511 83.773 40.5796 83.773C43.6669 83.773 45.6146 82.5651 45.6146 77.8683V45.9159H55.0114V77.9953C55.0114 87.7254 49.3066 92.154 40.9796 92.154C33.4558 92.154 29.0987 88.2603 26.8828 83.5707L34.532 78.9397Z" fill="black"/>
</svg>
