<svg width="100" height="101" viewBox="0 0 100 101" fill="none" xmlns="http://www.w3.org/2000/svg">
<path d="M98.762 15.0978L52.6453 98.9915C51.6931 100.724 49.2468 100.734 48.2805 99.0102L1.24949 15.1056C0.196433 13.2275 1.77525 10.9523 3.86756 11.333L50.0338 19.7276C50.3283 19.7811 50.6299 19.7806 50.9242 19.726L96.1248 11.3447C98.2102 10.9581 99.7963 13.2158 98.762 15.0978Z" fill="url(#paint0_linear_313_87)"/>
<path d="M72.0251 0.321496L37.8977 7.12467C37.625 7.17902 37.3778 7.32402 37.1949 7.53687C37.0121 7.74972 36.904 8.01836 36.8876 8.30054L34.7883 44.3709C34.7768 44.5687 34.8107 44.7666 34.8875 44.9487C34.9642 45.1309 35.0816 45.2923 35.2304 45.4202C35.3792 45.5481 35.5553 45.639 35.7446 45.6856C35.9339 45.7322 36.1313 45.7333 36.3211 45.6888L45.8228 43.458C46.7118 43.2492 47.5152 44.0459 47.3322 44.9553L44.5094 59.0185C44.3196 59.965 45.1928 60.7741 46.1012 60.4932L51.9702 58.6795C52.8798 58.3986 53.7541 59.2101 53.5616 60.1573L49.0756 82.2472C48.7949 83.629 50.6015 84.3824 51.3547 83.1979L51.8582 82.4067L79.6672 25.9464C80.1332 25.0011 79.3298 23.9231 78.3097 24.1236L68.5288 26.0439C67.61 26.2241 66.828 25.3534 67.0873 24.4389L73.4708 1.92612C73.7304 1.0093 72.9454 0.138132 72.0254 0.321496H72.0251Z" fill="url(#paint1_linear_313_87)"/>
<defs>
<linearGradient id="paint0_linear_313_87" x1="0.101192" y1="18.1016" x2="50.9516" y2="85.9844" gradientUnits="userSpaceOnUse">
<stop stop-color="#41D1FF"/>
<stop offset="1" stop-color="#BD34FE"/>
</linearGradient>
<linearGradient id="paint1_linear_313_87" x1="54.3126" y1="2.16869" x2="64.8944" y2="73.5209" gradientUnits="userSpaceOnUse">
<stop stop-color="#FFEA83"/>
<stop offset="0.083" stop-color="#FFDD35"/>
<stop offset="1" stop-color="#FFA800"/>
</linearGradient>
</defs>
</svg>
