<svg width="89" height="100" viewBox="0 0 89 100" fill="none" xmlns="http://www.w3.org/2000/svg">
<path d="M88.1915 0L80.1586 89.9895L44.0501 100L8.04105 90.0036L0.0166016 0H88.1915Z" fill="#264DE4"/>
<path d="M73.2819 84.2593L80.1466 7.35913H44.1045V92.3484L73.2819 84.2593Z" fill="#2965F1"/>
<path d="M18.4121 40.7402L19.4015 51.7787H44.1037V40.7402H18.4121Z" fill="#EBEBEB"/>
<path d="M44.1043 18.3977H44.0662H16.4248L17.4283 29.4364H44.1043V18.3977Z" fill="#EBEBEB"/>
<path d="M44.1045 80.8931V69.4083L44.0561 69.4212L31.7624 66.1016L30.9765 57.2979H25.0027H19.8955L21.442 74.63L44.0537 80.9072L44.1045 80.8931Z" fill="#EBEBEB"/>
<path d="M57.6592 51.7785L56.3779 66.0947L44.0664 69.4177V80.9019L66.6961 74.6301L66.8621 72.7652L69.4561 43.7042L69.7254 40.7401L71.7182 18.3977H44.0664V29.4364H59.6209L58.6165 40.7401H44.0664V51.7785H57.6592Z" fill="white"/>
</svg>
