<svg width="528" height="90" viewBox="0 0 528 90" fill="none" xmlns="http://www.w3.org/2000/svg">
<path d="M45.07 0.899998C53.3033 0.899998 60.67 1.94 67.17 4.02C73.7567 6.01333 79.5633 9.04666 84.59 13.12L72.37 32.62C68.2967 29.76 64.0067 27.4633 59.5 25.73C55.08 23.9967 50.27 23.13 45.07 23.13C42.8167 23.13 40.9967 23.3033 39.61 23.65C38.31 23.9967 37.3567 24.4733 36.75 25.08C36.23 25.6867 35.97 26.38 35.97 27.16C35.97 28.2 36.75 28.98 38.31 29.5C39.9567 30.02 41.9933 30.5833 44.42 31.19L56.25 33.92C65.0033 35.9133 71.59 38.86 76.01 42.76C80.5167 46.66 82.77 52.0767 82.77 59.01C82.77 65.9433 81.08 71.6633 77.7 76.17C74.32 80.59 69.7267 83.8833 63.92 86.05C58.2 88.2167 51.7 89.3 44.42 89.3C38.96 89.3 33.5 88.8233 28.04 87.87C22.58 86.83 17.51 85.3567 12.83 83.45C8.15 81.4567 4.12 79.0733 0.74 76.3L12.7 56.41C15.2133 58.4033 18.2467 60.2233 21.8 61.87C25.3533 63.43 29.0367 64.6867 32.85 65.64C36.6633 66.5933 40.2167 67.07 43.51 67.07C45.59 67.07 47.2367 66.8967 48.45 66.55C49.6633 66.2033 50.4867 65.77 50.92 65.25C51.44 64.6433 51.7 63.95 51.7 63.17C51.7 61.9567 51.18 61.0467 50.14 60.44C49.1867 59.8333 47.41 59.2267 44.81 58.62L31.81 55.76C27.2167 54.72 22.84 53.3333 18.68 51.6C14.52 49.8667 11.14 47.3533 8.54 44.06C5.94 40.68 4.64 36.13 4.64 30.41C4.64 24.5167 6.2 19.36 9.32 14.94C12.5267 10.52 17.12 7.09666 23.1 4.67C29.1667 2.15666 36.49 0.899998 45.07 0.899998ZM189.687 2.2L147.567 56.93L146.267 50.3L127.417 76.04L120.397 55.11L157.447 2.2H189.687ZM135.087 2.2V88H104.797V2.2H135.087ZM159.007 28.33L192.027 88H158.097L136.777 45.1L159.007 28.33ZM241.27 2.2V88H210.98V2.2H241.27ZM297.561 65.77H336.431V88H267.271V2.2H297.561V65.77ZM389.272 65.77H428.142V88H358.982V2.2H389.272V65.77ZM488.263 0.899998C496.497 0.899998 503.863 1.94 510.363 4.02C516.95 6.01333 522.757 9.04666 527.783 13.12L515.563 32.62C511.49 29.76 507.2 27.4633 502.693 25.73C498.273 23.9967 493.463 23.13 488.263 23.13C486.01 23.13 484.19 23.3033 482.803 23.65C481.503 23.9967 480.55 24.4733 479.943 25.08C479.423 25.6867 479.163 26.38 479.163 27.16C479.163 28.2 479.943 28.98 481.503 29.5C483.15 30.02 485.187 30.5833 487.613 31.19L499.443 33.92C508.197 35.9133 514.783 38.86 519.203 42.76C523.71 46.66 525.963 52.0767 525.963 59.01C525.963 65.9433 524.273 71.6633 520.893 76.17C517.513 80.59 512.92 83.8833 507.113 86.05C501.393 88.2167 494.893 89.3 487.613 89.3C482.153 89.3 476.693 88.8233 471.233 87.87C465.773 86.83 460.703 85.3567 456.023 83.45C451.343 81.4567 447.313 79.0733 443.933 76.3L455.893 56.41C458.407 58.4033 461.44 60.2233 464.993 61.87C468.547 63.43 472.23 64.6867 476.043 65.64C479.857 66.5933 483.41 67.07 486.703 67.07C488.783 67.07 490.43 66.8967 491.643 66.55C492.857 66.2033 493.68 65.77 494.113 65.25C494.633 64.6433 494.893 63.95 494.893 63.17C494.893 61.9567 494.373 61.0467 493.333 60.44C492.38 59.8333 490.603 59.2267 488.003 58.62L475.003 55.76C470.41 54.72 466.033 53.3333 461.873 51.6C457.713 49.8667 454.333 47.3533 451.733 44.06C449.133 40.68 447.833 36.13 447.833 30.41C447.833 24.5167 449.393 19.36 452.513 14.94C455.72 10.52 460.313 7.09666 466.293 4.67C472.36 2.15666 479.683 0.899998 488.263 0.899998Z" fill="url(#paint0_linear_330_127)" fill-opacity="0.9"/>
<defs>
<linearGradient id="paint0_linear_330_127" x1="275.227" y1="-554.5" x2="273.089" y2="107.997" gradientUnits="userSpaceOnUse">
<stop stop-color="white" stop-opacity="0.48"/>
<stop offset="1" stop-color="white" stop-opacity="0"/>
</linearGradient>
</defs>
</svg>
