<svg width="545" height="90" viewBox="0 0 545 90" fill="none" xmlns="http://www.w3.org/2000/svg">
<path d="M25.27 88L0.96 2.2H33.59L43.6 64.21L55.69 2.2H81.69L94.43 63.82L104.18 2.2H135.64L111.2 88H79.09L72.33 55.76L68.95 33.79H68.56L65.18 55.76L58.55 88H25.27ZM192.704 0.899998C201.804 0.899998 209.604 2.63333 216.104 6.09999C222.604 9.56666 227.587 14.5933 231.054 21.18C234.521 27.7667 236.254 35.74 236.254 45.1C236.254 54.46 234.521 62.4333 231.054 69.02C227.587 75.6067 222.604 80.6333 216.104 84.1C209.604 87.5667 201.804 89.3 192.704 89.3C183.691 89.3 175.891 87.5667 169.304 84.1C162.804 80.6333 157.777 75.6067 154.224 69.02C150.757 62.4333 149.024 54.46 149.024 45.1C149.024 35.74 150.757 27.7667 154.224 21.18C157.777 14.5933 162.804 9.56666 169.304 6.09999C175.891 2.63333 183.691 0.899998 192.704 0.899998ZM192.704 23.65C189.757 23.65 187.331 24.43 185.424 25.99C183.604 27.4633 182.217 29.76 181.264 32.88C180.397 36 179.964 40.0733 179.964 45.1C179.964 50.04 180.397 54.1133 181.264 57.32C182.217 60.44 183.604 62.78 185.424 64.34C187.331 65.8133 189.757 66.55 192.704 66.55C195.651 66.55 198.034 65.8133 199.854 64.34C201.761 62.78 203.147 60.44 204.014 57.32C204.881 54.1133 205.314 50.04 205.314 45.1C205.314 40.0733 204.881 36 204.014 32.88C203.147 29.76 201.761 27.4633 199.854 25.99C198.034 24.43 195.651 23.65 192.704 23.65ZM306.001 2.2C317.181 2.2 325.761 4.71333 331.741 9.73999C337.721 14.68 340.711 21.2667 340.711 29.5C340.711 38.9467 337.764 46.0533 331.871 50.82C326.064 55.5867 317.571 57.97 306.391 57.97L303.401 59.53H289.101V88H259.461V2.2H306.001ZM300.801 39.64C304.008 39.64 306.391 39.0767 307.951 37.95C309.598 36.7367 310.421 34.6567 310.421 31.71C310.421 28.85 309.598 26.8133 307.951 25.6C306.391 24.3867 304.008 23.78 300.801 23.78H289.101V39.64H300.801ZM318.741 46.01L345.521 88H312.631L292.611 50.43L318.741 46.01ZM449.011 2.2L406.891 56.93L405.591 50.3L386.741 76.04L379.721 55.11L416.771 2.2H449.011ZM394.411 2.2V88H364.121V2.2H394.411ZM418.331 28.33L451.351 88H417.421L396.101 45.1L418.331 28.33ZM505.209 0.899998C513.442 0.899998 520.809 1.94 527.309 4.02C533.895 6.01333 539.702 9.04666 544.729 13.12L532.509 32.62C528.435 29.76 524.145 27.4633 519.639 25.73C515.219 23.9967 510.409 23.13 505.209 23.13C502.955 23.13 501.135 23.3033 499.749 23.65C498.449 23.9967 497.495 24.4733 496.889 25.08C496.369 25.6867 496.109 26.38 496.109 27.16C496.109 28.2 496.889 28.98 498.449 29.5C500.095 30.02 502.132 30.5833 504.559 31.19L516.389 33.92C525.142 35.9133 531.729 38.86 536.149 42.76C540.655 46.66 542.909 52.0767 542.909 59.01C542.909 65.9433 541.219 71.6633 537.839 76.17C534.459 80.59 529.865 83.8833 524.059 86.05C518.339 88.2167 511.839 89.3 504.559 89.3C499.099 89.3 493.639 88.8233 488.179 87.87C482.719 86.83 477.649 85.3567 472.969 83.45C468.289 81.4567 464.259 79.0733 460.879 76.3L472.839 56.41C475.352 58.4033 478.385 60.2233 481.939 61.87C485.492 63.43 489.175 64.6867 492.989 65.64C496.802 66.5933 500.355 67.07 503.649 67.07C505.729 67.07 507.375 66.8967 508.589 66.55C509.802 66.2033 510.625 65.77 511.059 65.25C511.579 64.6433 511.839 63.95 511.839 63.17C511.839 61.9567 511.319 61.0467 510.279 60.44C509.325 59.8333 507.549 59.2267 504.949 58.62L491.949 55.76C487.355 54.72 482.979 53.3333 478.819 51.6C474.659 49.8667 471.279 47.3533 468.679 44.06C466.079 40.68 464.779 36.13 464.779 30.41C464.779 24.5167 466.339 19.36 469.459 14.94C472.665 10.52 477.259 7.09666 483.239 4.67C489.305 2.15666 496.629 0.899998 505.209 0.899998Z" fill="url(#paint0_linear_330_126)" fill-opacity="0.9"/>
<defs>
<linearGradient id="paint0_linear_330_126" x1="284.537" y1="-554.5" x2="282.461" y2="107.997" gradientUnits="userSpaceOnUse">
<stop stop-color="white" stop-opacity="0.48"/>
<stop offset="1" stop-color="white" stop-opacity="0"/>
</linearGradient>
</defs>
</svg>
